# xmcd
#
# Track frame offsets:
# 150
# 18370
# 32027
# 46995
# 63217
# 74525
# 87930
# 99860
# 112215
# 126235
# 137745
# 149770
# 161155
# 175010
# 188697
# 200577
# 212342
# 223325
# 233102
# 245275
#
# Disc length: 3428 seconds
#
#
# Revision: 1
# Processed by: cddbd v1.5.2PL0 Copyright (c) Steve Scherf et al.
# Submitted via: FreeRIP 2.945 
#
DISCID=280d6214
DTITLE=Teodoro and Sampaio - Raizes Sertanejas
DYEAR=1998
DGENRE=Country/Sertanejo
TTITLE0=Paixão Proibida - Partic. Esp. de Ricardo Braga
TTITLE1=Pinga Ne Mim
TTITLE2=Esta Noite Te Amarei
TTITLE3=Tô Apaixonado
TTITLE4=Passe Livre - Partc. Esp. de Barrerito
TTITLE5=Vestido de Seda
TTITLE6=Banho de Amor
TTITLE7=Sete Noites de Paixão
TTITLE8=Pobre Menina Rica
TTITLE9=Cão de Guarda
TTITLE10=Carisma
TTITLE11=A Dormideira
TTITLE12=Casaco Verde
TTITLE13=Porta Fechada
TTITLE14=Sabor de Mulher
TTITLE15=Estrela Caída
TTITLE16=Coração na Boca
TTITLE17=É Preciso Chorar
TTITLE18=Consulte Seu Coração
TTITLE19=Peso na Cama
EXTD=
EXTT0=
EXTT1=
EXTT2=
EXTT3=
EXTT4=
EXTT5=
EXTT6=
EXTT7=
EXTT8=
EXTT9=
EXTT10=
EXTT11=
EXTT12=
EXTT13=
EXTT14=
EXTT15=
EXTT16=
EXTT17=
EXTT18=
EXTT19=
PLAYORDER=
